<?xml version="1.0" standalone="no"?>
<!DOCTYPE svg PUBLIC "-//W3C//DTD SVG 20010904//EN"
 "http://www.w3.org/TR/2001/REC-SVG-20010904/DTD/svg10.dtd">
<svg version="1.0" xmlns="http://www.w3.org/2000/svg"
 width="512.000000pt" height="512.000000pt" viewBox="0 0 512.000000 512.000000"
 preserveAspectRatio="xMidYMid meet">
<metadata>
Created by potrace 1.14, written by Peter Selinger 2001-2017
</metadata>
<g transform="translate(0.000000,512.000000) scale(0.100000,-0.100000)"
fill="#000000" stroke="none">
<path d="M2320 5110 c-491 -47 -981 -247 -1365 -557 -129 -104 -340 -321 -433
-445 -274 -365 -443 -782 -504 -1238 -16 -123 -16 -509 0 -625 65 -459 233
-873 501 -1230 92 -122 304 -341 426 -440 368 -299 822 -493 1305 -557 123
-16 509 -16 625 0 459 65 873 233 1230 501 122 92 341 304 440 426 299 368
493 822 557 1305 16 123 16 509 0 625 -65 459 -233 873 -501 1230 -92 122
-304 341 -426 440 -365 297 -826 494 -1295 555 -115 15 -443 21 -560 10z
m-174 -1312 l199 -52 215 0 215 0 199 52 c177 46 209 52 300 52 130 0 221 -20
321 -69 293 -145 494 -505 635 -1134 149 -666 127 -1062 -69 -1258 -79 -78
-153 -111 -262 -117 -198 -10 -292 48 -589 365 -98 105 -176 151 -313 183
-123 29 -337 44 -532 36 -374 -14 -514 -59 -660 -214 -306 -325 -391 -379
-585 -370 -73 3 -98 9 -153 36 -124 61 -209 190 -249 378 -18 82 -22 131 -21
289 0 214 18 363 77 636 121 560 294 923 524 1096 136 103 254 141 438 142
104 1 126 -3 310 -51z"/>
<path d="M1707 3619 c-254 -60 -450 -369 -587 -923 -83 -336 -121 -655 -102
-851 24 -247 94 -355 229 -355 97 0 181 63 372 278 195 220 399 294 846 309
403 12 675 -37 858 -156 46 -30 105 -84 162 -147 200 -220 286 -284 384 -284
249 0 304 375 156 1066 -68 315 -160 583 -261 757 -55 94 -186 232 -251 266
-127 64 -254 67 -467 11 -222 -58 -309 -71 -486 -71 -177 0 -264 13 -486 71
-125 33 -166 40 -240 39 -49 -1 -106 -5 -127 -10z m1507 -363 c59 -25 98 -106
82 -170 -10 -42 -64 -95 -108 -107 -76 -20 -163 35 -182 114 -14 59 31 144 89
168 31 12 82 10 119 -5z m-1292 -25 l33 -29 3 -146 3 -146 133 0 c122 0 136
-2 167 -23 62 -42 69 -126 14 -174 -25 -22 -35 -23 -171 -23 l-144 0 0 -135
c0 -102 -4 -143 -15 -165 -17 -33 -61 -60 -97 -60 -33 0 -87 36 -98 66 -6 14
-10 86 -10 160 l0 134 -144 0 c-129 0 -146 2 -169 20 -38 30 -52 80 -34 122
29 67 43 73 203 76 l144 3 0 141 0 140 34 34 c46 46 101 48 148 5z m981 -308
c42 -21 67 -69 67 -131 0 -47 -4 -57 -38 -94 -35 -37 -45 -42 -93 -45 -42 -3
-61 0 -87 16 -114 72 -88 241 43 271 35 9 68 3 108 -17z m652 -2 c66 -37 89
-136 47 -204 -42 -66 -138 -88 -203 -44 -61 41 -86 125 -55 185 43 83 129 109
211 63z m-339 -317 c110 -52 110 -210 -1 -264 -58 -28 -112 -20 -161 22 -126
111 10 314 162 242z"/>
</g>
</svg>
